<svg width="180" height="46" viewBox="0 0 266 56" fill="none" xmlns="http://www.w3.org/2000/svg">
<path d="M6.97506 22.744C6.10403 21.6634 5.49607 20.3952 5.19919 19.0394C4.9023 17.6836 4.92462 16.2774 5.26437 14.9317C5.60412 13.5861 6.25201 12.3378 7.15689 11.2854C8.06177 10.2331 9.19888 9.40542 10.4784 8.86786L8.84468 11.2872C8.19376 12.1142 7.71958 13.0662 7.45153 14.084C7.18347 15.1017 7.12725 16.1637 7.28635 17.2041" stroke="black" stroke-width="1.27837" stroke-linecap="round" stroke-linejoin="round"/>
<path d="M10.8012 21.4547C9.96592 19.9444 9.66441 18.1966 9.9454 16.4937C10.2264 14.7909 11.0735 13.2326 12.3497 12.0707C13.6259 10.9089 15.2566 10.2114 16.9783 10.091C18.7 9.97061 20.4119 10.4344 21.8374 11.4073C20.2734 10.1525 18.3333 9.45937 16.3282 9.43903C14.3231 9.41869 12.3693 10.0724 10.7802 11.2952C9.19107 12.518 8.05868 14.2391 7.56466 16.1825C7.07065 18.1258 7.24364 20.1788 8.05589 22.0121" stroke="black" stroke-width="1.27837" stroke-linecap="round" stroke-linejoin="round"/>
<path d="M11.1298 21.5647L7.93384 22.2039L2.82034 26.039V27.9565L6.01628 28.5957C6.99842 28.9446 8.05897 29.0096 9.0764 28.7836C10.0938 28.5575 11.027 28.0493 11.769 27.3173L13.0473 33.07L13.6865 37.5443L14.9649 45.8538L14.3257 47.1321H16.8824V38.8227C16.8824 38.8227 21.3568 40.1011 23.9135 39.4619C26.4702 38.8227 28.3878 38.1835 28.3878 38.1835C28.3878 38.1835 29.6662 40.1011 30.9446 40.7403L30.3054 47.1321H32.8621V40.1011C32.8621 40.1011 30.9446 38.1835 32.2229 36.9051C33.5013 35.6268 33.5013 31.7917 33.5013 31.7917L35.4189 29.8741C35.4189 29.8741 33.5013 28.5957 31.5837 29.2349C31.5837 29.2349 23.2743 27.9565 21.3568 28.5957C21.3568 28.5957 18.1608 24.7606 15.6041 24.1214L16.8824 23.4822L13.1496 22.2377" stroke="black" stroke-width="1.27837" stroke-linecap="round" stroke-linejoin="round"/>
<path d="M28.3878 34.3484C28.017 35.5999 28.017 36.932 28.3878 38.1835" stroke="black" stroke-width="1.27837" stroke-linecap="round" stroke-linejoin="round"/>
<path d="M8.57302 26.039C8.92604 26.039 9.21221 25.7528 9.21221 25.3998C9.21221 25.0468 8.92604 24.7606 8.57302 24.7606C8.22001 24.7606 7.93384 25.0468 7.93384 25.3998C7.93384 25.7528 8.22001 26.039 8.57302 26.039Z" fill="black"/>
<path d="M18.1608 35.6268L16.8824 36.9051V38.8227" stroke="black" stroke-width="1.27837" stroke-linecap="round" stroke-linejoin="round"/>
<path d="M9.85138 22.843L13.0473 20.2863C13.2131 20.8855 13.1778 21.5225 12.9469 22.0998C12.716 22.677 12.3022 23.1626 11.7689 23.4822" stroke="black" stroke-width="1.27837" stroke-linecap="round" stroke-linejoin="round"/>
<path d="M27.5696 47.1321H36.6972" stroke="black" stroke-width="1.27837" stroke-linecap="round" stroke-linejoin="round"/>
<path d="M6.65546 47.1321H24.5572" stroke="black" stroke-width="1.27837" stroke-linecap="round" stroke-linejoin="round"/>
<path d="M4.0987 47.1321H0.902771" stroke="black" stroke-width="1.27837" stroke-linecap="round" stroke-linejoin="round"/>
<path d="M84.5052 38.9961C84.7825 38.9961 84.9959 39.1241 85.1452 39.3801C85.3159 39.6361 85.4012 39.9881 85.4012 40.4361C85.4012 41.2894 85.1985 41.9508 84.7932 42.4201C83.8759 43.5508 82.8732 44.4788 81.7852 45.2041C80.6972 45.9294 79.4492 46.2921 78.0412 46.2921C73.6892 46.2921 71.5132 43.2308 71.5132 37.1081C71.5132 36.1694 71.5452 35.2201 71.6092 34.2601H70.3612C69.7212 34.2601 69.2839 34.1428 69.0492 33.9081C68.8359 33.6734 68.7292 33.3001 68.7292 32.7881C68.7292 31.5934 69.2092 30.9961 70.1692 30.9961H71.9932C72.3559 28.6494 72.9105 26.5054 73.6572 24.5641C74.4039 22.6228 75.2999 21.0761 76.3452 19.9241C77.4119 18.7721 78.5532 18.1961 79.7692 18.1961C80.6652 18.1961 81.3692 18.5908 81.8812 19.3801C82.3932 20.1694 82.6492 21.1614 82.6492 22.3561C82.6492 25.6628 81.2625 28.5428 78.4892 30.9961H82.0732C82.4145 30.9961 82.6599 31.0708 82.8092 31.2201C82.9585 31.3694 83.0332 31.6468 83.0332 32.0521C83.0332 33.5241 81.8279 34.2601 79.4172 34.2601H75.5132C75.4705 35.3268 75.4492 36.1588 75.4492 36.7561C75.4492 38.9748 75.7052 40.5321 76.2172 41.4281C76.7505 42.3241 77.5825 42.7721 78.7132 42.7721C79.6305 42.7721 80.4412 42.4948 81.1452 41.9401C81.8492 41.3854 82.6812 40.5534 83.6412 39.4441C83.8972 39.1454 84.1852 38.9961 84.5052 38.9961ZM78.9052 21.2681C78.5852 21.2681 78.2225 21.6734 77.8172 22.4841C77.4332 23.2734 77.0599 24.3828 76.6972 25.8121C76.3559 27.2201 76.0679 28.7881 75.8332 30.5161C77.0919 29.4281 78.0305 28.2121 78.6492 26.8681C79.2892 25.5028 79.6092 24.2654 79.6092 23.1561C79.6092 21.8974 79.3745 21.2681 78.9052 21.2681ZM100.556 38.9961C100.833 38.9961 101.046 39.1241 101.196 39.3801C101.366 39.6361 101.452 39.9881 101.452 40.4361C101.452 41.2894 101.249 41.9508 100.844 42.4201C99.8624 43.5508 98.849 44.4788 97.8037 45.2041C96.7797 45.9294 95.6064 46.2921 94.2837 46.2921C93.1957 46.2921 92.3744 45.9828 91.8197 45.3641C91.265 44.7241 90.9877 43.8068 90.9877 42.6121C90.9877 42.0148 91.137 40.9481 91.4357 39.4121C91.713 38.0681 91.8517 37.1401 91.8517 36.6281C91.8517 36.2868 91.7344 36.1161 91.4997 36.1161C91.2224 36.1161 90.8277 36.4788 90.3157 37.2041C89.8037 37.9081 89.2917 38.8468 88.7797 40.0201C88.2677 41.1934 87.8517 42.4308 87.5317 43.7321C87.1264 45.4388 86.1237 46.2921 84.5237 46.2921C83.8837 46.2921 83.457 46.0681 83.2437 45.6201C83.0517 45.1508 82.9557 44.3188 82.9557 43.1241C82.9557 42.4414 82.9664 41.8974 82.9877 41.4921L83.0197 38.9321C83.0197 35.6468 83.3504 32.2228 84.0117 28.6601C84.6944 25.0974 85.6864 22.1108 86.9877 19.7001C88.3104 17.2681 89.889 16.0521 91.7237 16.0521C92.705 16.0521 93.4944 16.4788 94.0917 17.3321C94.7104 18.1641 95.0197 19.2521 95.0197 20.5961C95.0197 22.7508 94.3904 24.9908 93.1317 27.3161C91.873 29.6201 89.825 32.3188 86.9877 35.4121C86.9237 36.5214 86.8917 37.6628 86.8917 38.8361C87.5957 37.0228 88.3744 35.5508 89.2277 34.4201C90.1024 33.2681 90.9557 32.4468 91.7877 31.9561C92.641 31.4654 93.4197 31.2201 94.1237 31.2201C95.5104 31.2201 96.2037 31.9134 96.2037 33.3001C96.2037 34.1321 95.969 35.6361 95.4997 37.8121C95.0944 39.6681 94.8917 40.8948 94.8917 41.4921C94.8917 42.3454 95.201 42.7721 95.8197 42.7721C96.2464 42.7721 96.7477 42.5161 97.3237 42.0041C97.921 41.4708 98.7104 40.6174 99.6917 39.4441C99.9477 39.1454 100.236 38.9961 100.556 38.9961ZM91.0517 19.2201C90.6677 19.2201 90.241 19.7748 89.7717 20.8841C89.3024 21.9721 88.8437 23.4548 88.3957 25.3321C87.969 27.1881 87.617 29.2148 87.3397 31.4121C88.6624 29.8548 89.7504 28.1588 90.6037 26.3241C91.4784 24.4894 91.9157 22.8254 91.9157 21.3321C91.9157 20.6494 91.841 20.1268 91.6917 19.7641C91.5424 19.4014 91.329 19.2201 91.0517 19.2201ZM110.314 39.9561C110.592 39.9561 110.805 40.0841 110.954 40.3401C111.125 40.5961 111.21 40.9481 111.21 41.3961C111.21 42.1641 111.029 42.8254 110.666 43.3801C110.069 44.2974 109.28 45.0121 108.298 45.5241C107.338 46.0361 106.186 46.2921 104.842 46.2921C102.794 46.2921 101.205 45.6841 100.074 44.4681C98.9435 43.2308 98.3782 41.5668 98.3782 39.4761C98.3782 38.0041 98.6875 36.6388 99.3062 35.3801C99.9249 34.1001 100.778 33.0868 101.866 32.3401C102.976 31.5934 104.224 31.2201 105.61 31.2201C106.848 31.2201 107.84 31.5934 108.586 32.3401C109.333 33.0654 109.706 34.0574 109.706 35.3161C109.706 36.7881 109.173 38.0574 108.106 39.1241C107.061 40.1694 105.269 41.0014 102.73 41.6201C103.242 42.6014 104.106 43.0921 105.322 43.0921C106.197 43.0921 106.912 42.8894 107.466 42.4841C108.042 42.0788 108.704 41.3961 109.45 40.4361C109.706 40.1161 109.994 39.9561 110.314 39.9561ZM105.066 34.3561C104.277 34.3561 103.605 34.8148 103.05 35.7321C102.517 36.6494 102.25 37.7588 102.25 39.0601V39.1241C103.509 38.8254 104.501 38.3774 105.226 37.7801C105.952 37.1828 106.314 36.4894 106.314 35.7001C106.314 35.2948 106.197 34.9748 105.962 34.7401C105.749 34.4841 105.45 34.3561 105.066 34.3561ZM138.659 38.9961C138.937 38.9961 139.15 39.1241 139.299 39.3801C139.47 39.6361 139.555 39.9881 139.555 40.4361C139.555 41.2894 139.353 41.9508 138.947 42.4201C138.073 43.4868 137.113 44.4041 136.067 45.1721C135.022 45.9188 133.987 46.2921 132.963 46.2921C131.342 46.2921 130.105 45.3428 129.251 43.4441C128.355 44.5748 127.566 45.3321 126.883 45.7161C126.222 46.1001 125.443 46.2921 124.547 46.2921C123.246 46.2921 122.169 45.8121 121.315 44.8521C120.483 43.8708 120.067 42.6014 120.067 41.0441C120.067 39.3374 120.43 37.7588 121.155 36.3081C121.881 34.8361 122.873 33.6414 124.131 32.7241C125.411 31.7854 126.841 31.2308 128.419 31.0601C128.825 26.9214 129.593 23.3908 130.723 20.4681C131.875 17.5241 133.379 16.0521 135.235 16.0521C136.153 16.0521 136.91 16.4681 137.507 17.3001C138.126 18.1321 138.435 19.3908 138.435 21.0761C138.435 23.4654 137.849 26.2601 136.675 29.4601C135.502 32.6601 133.934 35.9454 131.971 39.3161C132.057 40.5534 132.238 41.4388 132.515 41.9721C132.814 42.5054 133.187 42.7721 133.635 42.7721C134.211 42.7721 134.798 42.5161 135.395 42.0041C135.993 41.4921 136.793 40.6388 137.795 39.4441C138.051 39.1454 138.339 38.9961 138.659 38.9961ZM134.883 19.1881C134.478 19.1881 134.073 19.9134 133.667 21.3641C133.262 22.7934 132.91 24.6708 132.611 26.9961C132.334 29.3214 132.131 31.7534 132.003 34.2921C134.393 29.0868 135.587 24.9054 135.587 21.7481C135.587 20.9374 135.513 20.3081 135.363 19.8601C135.235 19.4121 135.075 19.1881 134.883 19.1881ZM125.667 43.0601C126.073 43.0601 126.478 42.9001 126.883 42.5801C127.289 42.2388 127.801 41.6201 128.419 40.7241C128.206 39.5721 128.099 38.2814 128.099 36.8521C128.099 36.3401 128.121 35.5081 128.163 34.3561C126.99 34.7188 126.009 35.5081 125.219 36.7241C124.451 37.9188 124.067 39.2521 124.067 40.7241C124.067 42.2814 124.601 43.0601 125.667 43.0601ZM153.272 36.3081C153.549 36.3081 153.763 36.4468 153.912 36.7241C154.061 37.0014 154.136 37.3534 154.136 37.7801C154.136 38.8041 153.827 39.4121 153.208 39.6041C151.928 40.0521 150.52 40.3081 148.984 40.3721C148.579 42.1641 147.779 43.6041 146.584 44.6921C145.389 45.7588 144.035 46.2921 142.52 46.2921C141.24 46.2921 140.141 45.9828 139.224 45.3641C138.328 44.7454 137.645 43.9241 137.176 42.9001C136.707 41.8761 136.472 40.7668 136.472 39.5721C136.472 37.9508 136.781 36.5108 137.4 35.2521C138.019 33.9721 138.872 32.9801 139.96 32.2761C141.048 31.5508 142.253 31.1881 143.576 31.1881C145.197 31.1881 146.499 31.7534 147.48 32.8841C148.483 33.9934 149.069 35.3694 149.24 37.0121C150.243 36.9481 151.437 36.7348 152.824 36.3721C152.995 36.3294 153.144 36.3081 153.272 36.3081ZM142.776 42.9001C143.459 42.9001 144.045 42.6228 144.536 42.0681C145.048 41.5134 145.389 40.7134 145.56 39.6681C144.899 39.2201 144.387 38.6334 144.024 37.9081C143.683 37.1828 143.512 36.4148 143.512 35.6041C143.512 35.2628 143.544 34.9214 143.608 34.5801H143.448C142.595 34.5801 141.88 34.9961 141.304 35.8281C140.749 36.6388 140.472 37.7908 140.472 39.2841C140.472 40.4574 140.696 41.3534 141.144 41.9721C141.613 42.5908 142.157 42.9001 142.776 42.9001ZM153.661 46.2921C152.851 46.2921 152.275 45.8654 151.933 45.0121C151.613 44.1588 151.453 42.7934 151.453 40.9161C151.453 38.1428 151.848 35.5081 152.637 33.0121C152.829 32.3934 153.139 31.9454 153.565 31.6681C154.013 31.3694 154.632 31.2201 155.421 31.2201C155.848 31.2201 156.147 31.2734 156.317 31.3801C156.488 31.4868 156.573 31.6894 156.573 31.9881C156.573 32.3294 156.413 33.0974 156.093 34.2921C155.88 35.1454 155.709 35.8921 155.581 36.5321C155.453 37.1721 155.347 37.9614 155.261 38.9001C155.965 37.0654 156.755 35.5721 157.629 34.4201C158.504 33.2681 159.357 32.4468 160.189 31.9561C161.043 31.4654 161.821 31.2201 162.525 31.2201C163.912 31.2201 164.605 31.9134 164.605 33.3001C164.605 33.5774 164.509 34.2494 164.317 35.3161C164.147 36.1694 164.061 36.7028 164.061 36.9161C164.061 37.6628 164.328 38.0361 164.861 38.0361C165.459 38.0361 166.227 37.5668 167.165 36.6281C167.443 36.3508 167.731 36.2121 168.029 36.2121C168.307 36.2121 168.52 36.3401 168.669 36.5961C168.84 36.8308 168.925 37.1508 168.925 37.5561C168.925 38.3454 168.712 38.9641 168.285 39.4121C167.688 40.0308 166.984 40.5641 166.173 41.0121C165.384 41.4388 164.541 41.6521 163.645 41.6521C162.515 41.6521 161.651 41.3641 161.053 40.7881C160.477 40.2121 160.189 39.4334 160.189 38.4521C160.189 38.1321 160.221 37.8121 160.285 37.4921C160.328 37.0654 160.349 36.7774 160.349 36.6281C160.349 36.2868 160.232 36.1161 159.997 36.1161C159.677 36.1161 159.251 36.4788 158.717 37.2041C158.205 37.9081 157.693 38.8468 157.181 40.0201C156.669 41.1934 156.253 42.4308 155.933 43.7321C155.699 44.7348 155.421 45.4174 155.101 45.7801C154.803 46.1214 154.323 46.2921 153.661 46.2921ZM168.224 46.2921C167.413 46.2921 166.837 45.8654 166.496 45.0121C166.176 44.1588 166.016 42.7934 166.016 40.9161C166.016 38.1428 166.411 35.5081 167.2 33.0121C167.392 32.3934 167.701 31.9454 168.128 31.6681C168.576 31.3694 169.195 31.2201 169.984 31.2201C170.411 31.2201 170.709 31.2734 170.88 31.3801C171.051 31.4868 171.136 31.6894 171.136 31.9881C171.136 32.3294 170.976 33.0974 170.656 34.2921C170.443 35.1454 170.272 35.8921 170.144 36.5321C170.016 37.1508 169.909 37.9294 169.824 38.8681C170.4 37.2041 171.083 35.7961 171.872 34.6441C172.683 33.4921 173.504 32.6388 174.336 32.0841C175.189 31.5081 175.989 31.2201 176.736 31.2201C177.483 31.2201 178.005 31.3908 178.304 31.7321C178.624 32.0734 178.784 32.5961 178.784 33.3001C178.784 33.9828 178.581 35.2201 178.176 37.0121C178.005 37.7801 177.888 38.3561 177.824 38.7401C178.528 36.9481 179.307 35.4868 180.16 34.3561C181.035 33.2254 181.888 32.4254 182.72 31.9561C183.552 31.4654 184.32 31.2201 185.024 31.2201C185.707 31.2201 186.219 31.4014 186.56 31.7641C186.923 32.1054 187.104 32.6174 187.104 33.3001C187.104 33.8548 186.987 34.9001 186.752 36.4361C186.539 37.7374 186.368 38.9748 186.24 40.1481C186.112 41.3001 186.048 42.5908 186.048 44.0201C186.048 44.8308 185.877 45.4174 185.536 45.7801C185.216 46.1214 184.683 46.2921 183.936 46.2921C183.232 46.2921 182.72 46.1108 182.4 45.7481C182.08 45.3854 181.92 44.8414 181.92 44.1161C181.92 43.2628 182.069 41.8548 182.368 39.8921C182.624 38.1854 182.752 37.0974 182.752 36.6281C182.752 36.2868 182.635 36.1161 182.4 36.1161C182.123 36.1161 181.728 36.4788 181.216 37.2041C180.704 37.9081 180.192 38.8468 179.68 40.0201C179.168 41.1934 178.752 42.4308 178.432 43.7321C178.197 44.7561 177.92 45.4388 177.6 45.7801C177.301 46.1214 176.811 46.2921 176.128 46.2921C175.424 46.2921 174.891 45.9614 174.528 45.3001C174.187 44.6174 174.016 43.7961 174.016 42.8361C174.016 42.0254 174.123 40.8521 174.336 39.3161C174.507 37.9508 174.592 37.0548 174.592 36.6281C174.592 36.2868 174.475 36.1161 174.24 36.1161C173.92 36.1161 173.515 36.5001 173.024 37.2681C172.533 38.0361 172.053 39.0174 171.584 40.2121C171.136 41.4068 170.773 42.5801 170.496 43.7321C170.261 44.7348 169.984 45.4174 169.664 45.7801C169.365 46.1214 168.885 46.2921 168.224 46.2921ZM216.034 38.9961C216.312 38.9961 216.525 39.1241 216.674 39.3801C216.845 39.6361 216.93 39.9881 216.93 40.4361C216.93 41.2894 216.728 41.9508 216.322 42.4201C215.448 43.4868 214.488 44.4041 213.442 45.1721C212.397 45.9188 211.362 46.2921 210.338 46.2921C208.717 46.2921 207.48 45.3428 206.626 43.4441C205.73 44.5748 204.941 45.3321 204.258 45.7161C203.597 46.1001 202.818 46.2921 201.922 46.2921C200.621 46.2921 199.544 45.8121 198.69 44.8521C197.858 43.8708 197.442 42.6014 197.442 41.0441C197.442 39.3374 197.805 37.7588 198.53 36.3081C199.256 34.8361 200.248 33.6414 201.506 32.7241C202.786 31.7854 204.216 31.2308 205.794 31.0601C206.2 26.9214 206.968 23.3908 208.098 20.4681C209.25 17.5241 210.754 16.0521 212.61 16.0521C213.528 16.0521 214.285 16.4681 214.882 17.3001C215.501 18.1321 215.81 19.3908 215.81 21.0761C215.81 23.4654 215.224 26.2601 214.05 29.4601C212.877 32.6601 211.309 35.9454 209.346 39.3161C209.432 40.5534 209.613 41.4388 209.89 41.9721C210.189 42.5054 210.562 42.7721 211.01 42.7721C211.586 42.7721 212.173 42.5161 212.77 42.0041C213.368 41.4921 214.168 40.6388 215.17 39.4441C215.426 39.1454 215.714 38.9961 216.034 38.9961ZM212.258 19.1881C211.853 19.1881 211.448 19.9134 211.042 21.3641C210.637 22.7934 210.285 24.6708 209.986 26.9961C209.709 29.3214 209.506 31.7534 209.378 34.2921C211.768 29.0868 212.962 24.9054 212.962 21.7481C212.962 20.9374 212.888 20.3081 212.738 19.8601C212.61 19.4121 212.45 19.1881 212.258 19.1881ZM203.042 43.0601C203.448 43.0601 203.853 42.9001 204.258 42.5801C204.664 42.2388 205.176 41.6201 205.794 40.7241C205.581 39.5721 205.474 38.2814 205.474 36.8521C205.474 36.3401 205.496 35.5081 205.538 34.3561C204.365 34.7188 203.384 35.5081 202.594 36.7241C201.826 37.9188 201.442 39.2521 201.442 40.7241C201.442 42.2814 201.976 43.0601 203.042 43.0601ZM228.599 38.9961C228.876 38.9961 229.09 39.1241 229.239 39.3801C229.41 39.6361 229.495 39.9881 229.495 40.4361C229.495 41.2894 229.292 41.9508 228.887 42.4201C228.098 43.3801 226.978 44.2654 225.527 45.0761C224.098 45.8868 222.562 46.2921 220.919 46.2921C218.679 46.2921 216.94 45.6841 215.703 44.4681C214.466 43.2521 213.847 41.5881 213.847 39.4761C213.847 38.0041 214.156 36.6388 214.775 35.3801C215.394 34.1001 216.247 33.0868 217.335 32.3401C218.444 31.5934 219.692 31.2201 221.079 31.2201C222.316 31.2201 223.308 31.5934 224.055 32.3401C224.802 33.0654 225.175 34.0574 225.175 35.3161C225.175 36.7881 224.642 38.0574 223.575 39.1241C222.53 40.1694 220.748 41.0014 218.231 41.6201C218.764 42.6014 219.778 43.0921 221.271 43.0921C222.231 43.0921 223.319 42.7614 224.535 42.1001C225.772 41.4174 226.839 40.5321 227.735 39.4441C227.991 39.1454 228.279 38.9961 228.599 38.9961ZM220.535 34.3561C219.746 34.3561 219.074 34.8148 218.519 35.7321C217.986 36.6494 217.719 37.7588 217.719 39.0601V39.1241C218.978 38.8254 219.97 38.3774 220.695 37.7801C221.42 37.1828 221.783 36.4894 221.783 35.7001C221.783 35.2948 221.666 34.9748 221.431 34.7401C221.218 34.4841 220.919 34.3561 220.535 34.3561ZM229.161 46.2921C228.351 46.2921 227.775 45.8654 227.433 45.0121C227.113 44.1588 226.953 42.7934 226.953 40.9161C226.953 38.1428 227.348 35.5081 228.137 33.0121C228.329 32.3934 228.639 31.9454 229.065 31.6681C229.513 31.3694 230.132 31.2201 230.921 31.2201C231.348 31.2201 231.647 31.2734 231.817 31.3801C231.988 31.4868 232.073 31.6894 232.073 31.9881C232.073 32.3294 231.913 33.0974 231.593 34.2921C231.38 35.1454 231.209 35.8921 231.081 36.5321C230.953 37.1721 230.847 37.9614 230.761 38.9001C231.465 37.0654 232.255 35.5721 233.129 34.4201C234.004 33.2681 234.857 32.4468 235.689 31.9561C236.543 31.4654 237.321 31.2201 238.025 31.2201C238.708 31.2201 239.22 31.4014 239.561 31.7641C239.924 32.1054 240.105 32.6174 240.105 33.3001C240.105 33.8548 239.988 34.9001 239.753 36.4361C239.54 37.7374 239.369 38.9748 239.241 40.1481C239.113 41.3001 239.049 42.5908 239.049 44.0201C239.049 44.8308 238.879 45.4174 238.537 45.7801C238.217 46.1214 237.684 46.2921 236.937 46.2921C236.233 46.2921 235.721 46.1108 235.401 45.7481C235.081 45.3854 234.921 44.8414 234.921 44.1161C234.921 43.2628 235.071 41.8548 235.369 39.8921C235.625 38.1854 235.753 37.0974 235.753 36.6281C235.753 36.2868 235.636 36.1161 235.401 36.1161C235.124 36.1161 234.729 36.4788 234.217 37.2041C233.727 37.9081 233.215 38.8468 232.681 40.0201C232.169 41.1934 231.753 42.4308 231.433 43.7321C231.199 44.7348 230.921 45.4174 230.601 45.7801C230.303 46.1214 229.823 46.2921 229.161 46.2921ZM244.597 46.2921C243.659 46.2921 242.944 46.0361 242.453 45.5241C241.984 45.0121 241.749 44.3401 241.749 43.5081C241.749 42.5481 242.016 41.7801 242.549 41.2041C243.104 40.6281 243.872 40.3401 244.853 40.3401C245.792 40.3401 246.496 40.5748 246.965 41.0441C247.456 41.4921 247.701 42.1641 247.701 43.0601C247.701 44.0414 247.424 44.8308 246.869 45.4281C246.315 46.0041 245.557 46.2921 244.597 46.2921Z" fill="black"/>
</svg>
