<svg width="90" height="90" viewBox="0 0 90 90" fill="none" xmlns="http://www.w3.org/2000/svg">
<rect width="90" height="90" rx="45" fill="#F6F0FA"/>
<rect x="8" y="7" width="75" height="75" rx="37.5" fill="#F0E2F7"/>
<g clip-path="url(#clip0_346_17)">
<path fill-rule="evenodd" clip-rule="evenodd" d="M54.1476 44.4003C49.4221 44.4003 45.5793 40.5611 45.5793 35.8402C45.5793 31.1192 49.4221 27.2801 54.1476 27.2801C58.873 27.2801 62.7159 31.1192 62.7159 35.8402C62.7159 40.5611 58.873 44.4003 54.1476 44.4003ZM54.1476 23C47.0487 23 41.2951 28.748 41.2951 35.8402C41.2951 38.6222 42.1905 41.1922 43.6964 43.2959L24 62.9745L27.0289 66L30.0835 62.9482L33.0524 65.9139L36.0834 62.8884L33.1124 59.9227L37.3515 55.6867L40.3633 58.6965L43.3922 55.6699L40.3804 52.6612L46.7317 46.3162C48.8288 47.8014 51.3821 48.6803 54.1476 48.6803C61.2464 48.6803 67 42.9323 67 35.8402C67 28.748 61.2464 23 54.1476 23Z" fill="#A761CC"/>
</g>
<defs>
<clipPath id="clip0_346_17">
<rect width="43" height="43" fill="white" transform="translate(24 23)"/>
</clipPath>
</defs>
</svg>
