<svg width="90" height="90" viewBox="0 0 90 90" fill="none" xmlns="http://www.w3.org/2000/svg">
<rect width="90" height="90" rx="45" fill="#F6F0FA"/>
<rect x="8" y="7" width="75" height="75" rx="37.5" fill="#F0E2F7"/>
<path d="M66.94 30.09C66.8495 29.7774 66.6604 29.5024 66.4009 29.306C66.1414 29.1096 65.8254 29.0022 65.5 29H25.5C25.1038 29.0052 24.7253 29.1649 24.4451 29.4451C24.1649 29.7253 24.0052 30.1038 24 30.5V58.12C24 58.5178 24.158 58.8994 24.4393 59.1807C24.7206 59.462 25.1022 59.62 25.5 59.62H65.5C65.8978 59.62 66.2794 59.462 66.5607 59.1807C66.842 58.8994 67 58.5178 67 58.12V30.5C66.9955 30.3615 66.9754 30.224 66.94 30.09ZM60.69 32L45.5 42.49L30.31 32H60.69ZM27 56.62V33.36L44.65 45.54C44.8985 45.7161 45.1955 45.8107 45.5 45.8107C45.8045 45.8107 46.1015 45.7161 46.35 45.54L64 33.36V56.62H27Z" fill="#A761CC"/>
</svg>
