<svg width="16" height="16" viewBox="0 0 16 16" fill="none" xmlns="http://www.w3.org/2000/svg">
<path d="M7.89727 1.6C7.04857 1.6 6.23464 1.93714 5.63452 2.53726C5.03441 3.13737 4.69727 3.95131 4.69727 4.8C4.69727 5.64869 5.03441 6.46263 5.63452 7.06274C6.23464 7.66286 7.04857 8 7.89727 8C8.74596 8 9.55989 7.66286 10.16 7.06274C10.7601 6.46263 11.0973 5.64869 11.0973 4.8C11.0973 3.95131 10.7601 3.13737 10.16 2.53726C9.55989 1.93714 8.74596 1.6 7.89727 1.6ZM3.09727 4.8C3.09727 3.52696 3.60298 2.30606 4.50315 1.40589C5.40333 0.505713 6.62423 0 7.89727 0C9.17031 0 10.3912 0.505713 11.2914 1.40589C12.1916 2.30606 12.6973 3.52696 12.6973 4.8C12.6973 6.07304 12.1916 7.29394 11.2914 8.19411C10.3912 9.09429 9.17031 9.6 7.89727 9.6C6.62423 9.6 5.40333 9.09429 4.50315 8.19411C3.60298 7.29394 3.09727 6.07304 3.09727 4.8ZM4.69727 12.8C4.06075 12.8 3.4503 13.0529 3.00021 13.5029C2.55012 13.953 2.29727 14.5635 2.29727 15.2C2.29727 15.4122 2.21298 15.6157 2.06295 15.7657C1.91292 15.9157 1.70944 16 1.49727 16C1.28509 16 1.08161 15.9157 0.93158 15.7657C0.781551 15.6157 0.697266 15.4122 0.697266 15.2C0.697266 14.1391 1.11869 13.1217 1.86884 12.3716C2.61898 11.6214 3.6364 11.2 4.69727 11.2H11.0973C12.1581 11.2 13.1755 11.6214 13.9257 12.3716C14.6758 13.1217 15.0973 14.1391 15.0973 15.2C15.0973 15.4122 15.013 15.6157 14.863 15.7657C14.7129 15.9157 14.5094 16 14.2973 16C14.0851 16 13.8816 15.9157 13.7316 15.7657C13.5816 15.6157 13.4973 15.4122 13.4973 15.2C13.4973 14.5635 13.2444 13.953 12.7943 13.5029C12.3442 13.0529 11.7338 12.8 11.0973 12.8H4.69727Z" fill="#FFFDFD"/>
</svg>
